# xmcd CD database file
#
# Track frame offsets:
#	150
#	24564
#	52787
#	78747
#	90862
#	114950
#	134789
#	156258
#	185144
#	206702
#
# Disc length: 2994 seconds
#
# Revision: 0
# Processed by: cddbd v1.5.2PL0 Copyright (c) Steve Scherf et al.
# Submitted via: CDex 1.70beta2
#
DISCID=830bb00a
DTITLE=Michal Urbaniak - Fusion III
DYEAR=1975
DGENRE=Jazz
TTITLE0=Chinatown
TTITLE1=Kuyaviak Goes Funky
TTITLE2=Roksana
TTITLE3=Crazy Kid
TTITLE4=Prehistoric Bird
TTITLE5=Bloody Kishka
TTITLE6=Cameo
TTITLE7=Stretch
TTITLE8=Metroliner
TTITLE9=Chinatown (part II)
EXTD=YEAR: 1975
EXTT0=
EXTT1=
EXTT2=
EXTT3=
EXTT4=
EXTT5=
EXTT6=
EXTT7=
EXTT8=
EXTT9=
PLAYORDER=
